<?xml version="1.0" standalone="no"?>
<!DOCTYPE svg PUBLIC "-//W3C//DTD SVG 20010904//EN"
 "http://www.w3.org/TR/2001/REC-SVG-20010904/DTD/svg10.dtd">
<svg version="1.0" xmlns="http://www.w3.org/2000/svg"
 width="3000.000000pt" height="2000.000000pt" viewBox="0 0 3000.000000 2000.000000"
 preserveAspectRatio="xMidYMid meet">
<metadata>
Created by potrace 1.16, written by Peter Selinger 2001-2019
</metadata>
<g transform="translate(0.000000,2000.000000) scale(0.100000,-0.100000)"
fill="#000000" stroke="none">
<path d="M15465 16964 c-390 -12 -1088 -34 -1550 -49 -462 -14 -1200 -37
-1640 -50 -440 -14 -1167 -36 -1615 -50 -448 -14 -1026 -32 -1285 -40 -258 -8
-579 -18 -712 -21 l-243 -7 0 -259 c0 -239 1 -258 18 -258 9 0 141 5 292 10
415 14 981 32 1925 60 182 5 393 12 470 15 77 2 226 7 330 10 105 3 249 8 320
10 72 3 290 10 485 15 195 5 418 12 495 15 77 3 442 14 810 25 369 11 805 24
970 30 844 29 1661 51 1745 46 98 -6 263 -15 750 -41 157 -9 407 -22 555 -30
251 -14 1219 -66 2765 -150 355 -19 767 -42 915 -50 283 -16 944 -52 2025
-110 355 -19 1019 -55 1475 -80 457 -25 916 -49 1020 -55 105 -6 264 -15 355
-20 91 -5 175 -10 188 -10 l22 0 0 259 0 258 -167 7 c-93 4 -181 9 -198 11
-16 2 -93 6 -170 10 -77 3 -174 8 -215 10 -83 6 -433 25 -1000 55 -206 11
-418 22 -470 25 -52 3 -297 17 -545 30 -247 14 -493 27 -545 30 -52 3 -178 10
-280 15 -102 5 -225 12 -275 15 -49 3 -216 12 -370 20 -154 8 -363 20 -465 25
-102 6 -351 19 -555 30 -203 11 -410 22 -460 25 -49 3 -297 17 -550 30 -253
14 -500 27 -550 30 -49 3 -382 21 -740 40 -357 19 -686 37 -730 39 -44 3 -127
8 -185 11 -58 3 -184 10 -280 15 -96 6 -263 15 -370 20 -365 19 -935 50 -995
54 -33 2 -379 -7 -770 -20z"/>
<path d="M7108 13206 c-11 -8 -18 -26 -18 -45 l0 -31 190 0 190 0 0 25 c0 14
-9 34 -20 45 -18 18 -33 20 -172 20 -111 -1 -158 -4 -170 -14z"/>
<path d="M7838 13206 c-11 -8 -18 -26 -18 -45 l0 -31 190 0 190 0 0 25 c0 14
-9 34 -20 45 -18 18 -33 20 -172 20 -111 -1 -158 -4 -170 -14z"/>
<path d="M8567 13208 c-9 -7 -20 -28 -23 -45 l-6 -33 196 0 196 0 0 29 c0 53
-25 61 -195 61 -105 0 -156 -4 -168 -12z"/>
<path d="M8795 12843 c-477 -6 -1274 -33 -2145 -73 -239 -10 -554 -24 -700
-30 -548 -22 -666 -34 -860 -91 -177 -51 -287 -124 -368 -240 -96 -141 -326
-734 -445 -1149 -133 -463 -294 -1190 -304 -1376 -9 -151 33 -259 143 -364 99
-95 244 -152 509 -199 538 -97 1288 -125 2885 -110 1188 12 1419 22 1713 79
486 94 789 298 882 592 13 40 42 199 65 353 59 397 157 984 246 1466 87 473
99 608 70 741 -47 212 -175 337 -383 373 -89 16 -705 36 -973 33 -91 -1 -241
-4 -335 -5z m1120 -213 c214 -17 296 -50 342 -140 61 -119 56 -223 -31 -700
-114 -624 -220 -1254 -276 -1653 -29 -203 -55 -270 -138 -360 -158 -168 -429
-272 -839 -321 -138 -17 -576 -38 -748 -36 -55 1 -534 -2 -1065 -6 -1136 -8
-1584 3 -2095 52 -364 34 -614 83 -730 142 -95 48 -154 128 -162 219 -10 115
150 855 297 1371 134 473 358 1034 457 1142 93 104 353 169 733 185 80 3 330
17 555 30 496 30 763 41 1295 56 965 26 2186 36 2405 19z"/>
<path d="M12035 12650 c-246 -13 -568 -40 -658 -55 -186 -32 -351 -164 -425
-340 -54 -128 -158 -561 -211 -880 -99 -597 -149 -1356 -139 -2134 3 -282 6
-330 21 -358 35 -65 112 -101 179 -82 20 5 141 66 268 134 126 68 279 150 338
181 59 32 172 93 251 136 80 43 148 78 152 78 12 0 11 -611 -1 -666 -6 -27
-22 -63 -36 -81 -45 -59 -82 -70 -305 -93 -112 -11 -216 -22 -231 -25 -25 -4
-28 -2 -28 26 0 52 -26 98 -64 114 -41 18 -192 20 -248 5 -63 -18 -68 -33 -68
-222 0 -162 1 -168 24 -195 24 -27 27 -28 143 -31 67 -2 130 1 145 7 40 15 68
66 68 124 0 26 4 47 8 47 4 0 115 11 247 25 193 20 248 30 289 48 66 31 123
88 155 157 l26 55 3 391 3 390 62 32 c64 32 110 57 422 224 307 165 589 279
877 353 34 9 78 25 98 35 44 22 102 85 130 139 25 49 44 204 61 491 22 376 -5
1373 -42 1560 -38 192 -201 348 -397 379 -197 32 -784 48 -1117 31z m990 -139
c55 -7 123 -18 151 -26 111 -32 215 -134 233 -230 30 -152 50 -1001 32 -1345
-17 -341 -36 -494 -67 -557 -38 -78 -98 -126 -197 -156 -45 -14 -136 -42 -202
-62 -244 -75 -461 -171 -818 -363 -114 -62 -210 -112 -212 -112 -3 0 -5 22 -5
49 l0 48 78 5 c92 6 142 28 196 88 76 84 71 15 71 980 0 824 -1 867 -19 914
-25 66 -75 119 -139 147 -47 22 -66 24 -207 24 -196 0 -236 -10 -306 -80 -89
-89 -84 -29 -84 -1000 0 -936 -2 -901 61 -978 43 -52 108 -87 174 -94 l55 -6
0 -76 c0 -42 -4 -81 -8 -87 -4 -5 -115 -68 -247 -139 -132 -70 -262 -140 -290
-155 -27 -15 -84 -46 -125 -68 -41 -22 -151 -81 -243 -131 -93 -50 -171 -91
-173 -91 -8 0 -3 874 6 1080 25 552 77 1018 160 1455 60 316 136 599 188 698
57 110 173 200 293 226 47 10 326 36 549 50 180 12 969 6 1095 -8z"/>
<path d="M3361 11624 c-34 -17 -62 -41 -79 -67 l-27 -41 -3 -698 c-2 -672 -2
-699 17 -736 38 -75 103 -112 196 -112 l55 0 0 -445 c0 -491 0 -487 63 -553
18 -19 49 -42 70 -53 36 -19 173 -43 189 -33 4 3 8 25 8 48 l0 43 -66 6 c-82
8 -130 36 -155 91 -17 38 -19 73 -19 469 l0 427 33 0 c75 1 156 63 177 138 8
25 10 254 8 723 l-3 686 -29 41 c-18 26 -47 51 -79 67 -46 23 -62 25 -177 25
-116 0 -130 -2 -179 -26z"/>
<path d="M13477 8830 c-45 -14 -95 -58 -120 -103 -22 -41 -22 -50 -25 -421 -3
-431 -1 -447 68 -510 93 -83 233 -68 305 33 l30 43 0 417 0 417 -28 42 c-44
68 -154 107 -230 82z"/>
<path d="M26498 7792 l-148 -3 0 -814 c0 -448 -3 -815 -7 -814 -5 0 -95 117
-202 260 l-194 259 -84 0 c-47 0 -83 -3 -81 -8 8 -18 517 -689 534 -704 45
-39 88 -48 244 -48 137 0 152 2 170 20 20 20 20 33 20 918 0 844 -1 900 -17
914 -24 21 -62 24 -235 20z"/>
<path d="M4512 7397 c-44 -25 -56 -56 -60 -154 -4 -92 -4 -93 19 -93 13 0 213
-7 444 -15 231 -8 432 -15 448 -15 l27 0 0 134 0 134 -122 6 c-68 3 -260 8
-428 11 -240 4 -310 2 -328 -8z"/>
<path d="M5640 7251 l0 -141 34 0 c60 0 1276 -39 1414 -45 l132 -6 0 145 0
144 -92 6 c-51 3 -361 10 -688 16 -327 5 -641 13 -697 16 l-103 5 0 -140z"/>
<path d="M7470 7201 l0 -151 70 0 c77 0 620 -17 768 -24 l92 -4 0 115 c0 127
-12 164 -59 182 -14 6 -154 13 -311 16 -157 3 -347 8 -422 11 l-138 6 0 -151z"/>
<path d="M14030 7184 c-173 -12 -441 -32 -595 -43 -366 -27 -514 -60 -716
-161 -266 -134 -520 -385 -651 -644 -64 -127 -101 -249 -193 -633 -59 -248
-102 -407 -113 -423 -11 -14 -34 -34 -53 -45 -33 -20 -52 -20 -772 -20 l-737
0 0 -242 0 -243 508 0 507 0 1 -178 c4 -743 395 -1352 972 -1515 73 -21 97
-22 477 -21 379 0 404 1 477 21 304 86 546 281 731 591 31 54 64 115 73 138
13 35 21 42 62 53 130 34 262 161 319 307 27 68 27 74 33 344 l5 275 285 3
c157 2 300 0 318 -3 32 -6 32 -6 32 -63 0 -73 24 -219 56 -347 104 -409 357
-762 674 -938 36 -20 115 -53 175 -74 l110 -38 420 0 c469 0 472 0 646 75 210
89 423 286 562 517 125 207 216 483 242 728 3 33 8 79 11 103 l5 42 87 0 c218
1 468 86 672 228 36 25 204 184 375 354 l309 308 437 0 437 0 -67 -132 c-148
-293 -227 -645 -222 -986 1 -45 6 -58 30 -83 27 -26 35 -29 99 -29 l70 0 7
-62 c29 -262 117 -528 243 -737 179 -296 423 -491 720 -573 75 -21 95 -22 862
-25 841 -3 868 -2 1020 48 287 94 547 337 710 664 61 123 133 323 145 408 7
45 10 48 66 78 78 42 135 92 176 156 71 111 67 80 73 688 l5 550 167 2 c185 2
251 14 353 64 159 78 289 237 348 424 9 28 54 169 101 314 47 146 86 268 86
271 0 4 -343 10 -762 14 -420 3 -1442 13 -2273 21 -830 8 -1994 19 -2585 25
-591 5 -1284 12 -1540 15 -256 3 -748 7 -1095 11 -346 3 -1048 12 -1560 20
-511 7 -954 14 -982 14 l-53 0 0 205 c0 113 -3 204 -7 204 -5 -1 -150 -12
-323 -25z m-3123 -2126 c65 -45 70 -131 11 -181 -32 -27 -37 -28 -133 -26
-114 1 -143 12 -169 62 -31 57 -5 132 55 156 13 5 64 10 113 10 77 1 94 -2
123 -21z"/>
<path d="M4452 6758 l3 -143 200 -6 c110 -3 320 -10 468 -14 l267 -8 0 142 c0
77 -1 141 -2 141 -12 2 -845 30 -886 30 l-53 0 3 -142z"/>
<path d="M5640 6721 l0 -139 93 -6 c50 -3 319 -13 597 -21 278 -9 592 -18 698
-22 l192 -6 0 141 0 140 -62 6 c-64 5 -1368 47 -1465 46 l-53 0 0 -139z"/>
<path d="M7470 6660 c0 -105 3 -140 13 -140 6 0 199 -7 427 -15 228 -8 432
-15 453 -15 l37 0 0 143 0 143 -402 12 c-222 7 -431 12 -465 12 l-63 0 0 -140z"/>
<path d="M4453 6354 c-9 -25 5 -111 23 -138 9 -15 32 -30 53 -36 26 -7 756
-50 849 -50 9 0 12 28 12 105 l0 105 -57 0 c-80 0 -667 18 -781 25 -77 4 -94
2 -99 -11z"/>
<path d="M5640 6226 l0 -105 33 -5 c34 -5 1446 -77 1510 -76 l37 0 0 120 c0
118 0 120 -22 120 -50 0 -1273 39 -1410 45 l-148 7 0 -106z"/>
<path d="M7470 6145 l0 -125 30 0 c16 0 205 -9 420 -20 358 -19 393 -19 424
-5 18 9 38 27 45 41 12 27 16 204 4 204 -5 0 -197 7 -428 15 -231 8 -437 15
-457 15 l-38 0 0 -125z"/>
<path d="M4710 5565 c0 -8 3 -15 8 -15 4 0 8 -58 10 -129 4 -145 -10 -205 -56
-256 -58 -63 -76 -69 -217 -73 -71 -2 -134 -7 -138 -12 -5 -4 -18 -5 -30 -2
-20 5 -20 6 -1 13 12 5 -9 8 -56 10 -108 3 -134 -1 -116 -18 4 -4 15 -3 24 3
9 6 28 7 42 3 26 -7 24 -8 -28 -14 -18 -1 -36 -5 -39 -9 -16 -16 69 -28 227
-33 293 -10 302 -9 348 18 85 51 102 98 102 281 0 131 -6 160 -43 215 -24 35
-37 42 -37 18z"/>
<path d="M7680 5423 c0 -6 5 -15 11 -19 6 -3 8 -15 6 -26 -4 -15 -2 -18 15
-12 18 5 19 4 7 -9 -8 -8 -17 -13 -21 -11 -9 6 2 -255 12 -288 11 -34 -6 -38
-20 -5 -6 14 -9 16 -9 6 -1 -21 -53 -88 -68 -89 -7 0 -13 -4 -13 -9 0 -5 -14
-14 -30 -21 -23 -10 -78 -11 -228 -5 -108 4 -220 8 -247 9 -28 1 -56 6 -63 10
-11 7 -11 4 -2 -11 7 -10 25 -26 41 -35 26 -15 29 -15 41 0 10 12 10 14 0 8
-14 -8 -52 1 -52 14 0 4 15 6 33 4 17 -1 46 -4 62 -5 22 -1 24 -3 10 -6 -30
-7 -42 -23 -19 -24 12 -1 8 -4 -11 -9 -34 -9 16 -12 245 -15 74 -1 143 -5 152
-10 19 -7 97 1 107 11 3 4 -4 4 -16 1 -13 -3 -25 -2 -27 2 -3 4 9 8 27 9 17 2
37 8 44 14 7 6 13 7 13 3 0 -14 32 19 56 57 28 44 29 48 10 48 -8 0 -19 -12
-24 -27 -7 -19 -11 -22 -11 -10 -1 10 6 31 14 47 12 24 13 33 3 49 -7 11 -9
23 -5 27 11 11 19 -2 21 -33 2 -15 6 -28 10 -28 5 0 7 65 7 145 -1 119 -4 147
-17 157 -9 6 -13 16 -10 22 4 5 -7 25 -23 43 -17 18 -31 28 -31 21z"/>
<path d="M5876 4718 c23 -251 58 -413 124 -580 81 -204 183 -367 319 -510 145
-153 278 -240 466 -305 l110 -38 430 0 430 0 100 34 c55 18 123 45 150 58 185
93 380 279 513 488 110 176 211 461 240 683 l9 62 -355 0 c-307 0 -420 5 -831
35 -262 19 -728 52 -1036 74 -308 22 -586 43 -617 46 l-57 6 5 -53z"/>
</g>
</svg>
