<?xml version="1.0" standalone="no"?>
<!DOCTYPE svg PUBLIC "-//W3C//DTD SVG 20010904//EN"
 "http://www.w3.org/TR/2001/REC-SVG-20010904/DTD/svg10.dtd">
<svg version="1.0" xmlns="http://www.w3.org/2000/svg"
 width="685.000000pt" height="827.000000pt" viewBox="0 0 685.000000 827.000000"
 preserveAspectRatio="xMidYMid meet">
<metadata>
Created by potrace 1.16, written by Peter Selinger 2001-2019
</metadata>
<g transform="translate(0.000000,827.000000) scale(0.100000,-0.100000)"
fill="#000000" stroke="none">
<path d="M5134 7556 c8 -20 36 -63 61 -96 44 -57 46 -58 78 -48 17 6 51 15 75
22 24 6 41 15 38 22 -2 6 -7 32 -11 57 -4 26 -12 51 -19 56 -6 5 -62 12 -124
16 l-113 7 15 -36z"/>
<path d="M1641 7559 c-41 -5 -76 -11 -79 -13 -2 -3 -7 -34 -9 -70 -5 -58 -4
-66 11 -66 10 0 40 -8 68 -17 l52 -16 39 44 c42 47 77 108 77 134 0 17 -36 18
-159 4z"/>
<path d="M2605 6709 c-556 -10 -621 -14 -1006 -60 -172 -20 -308 -57 -344 -93
-25 -25 -49 -116 -61 -230 -3 -38 -10 -63 -14 -56 -5 8 -18 10 -33 6 -14 -3
-69 -11 -122 -16 -54 -6 -113 -18 -132 -27 -42 -20 -72 -78 -73 -139 l0 -41
-63 -7 c-123 -14 -270 -85 -301 -145 -16 -30 -34 -472 -22 -536 6 -31 14 -39
49 -55 23 -10 76 -23 117 -30 41 -7 81 -16 88 -20 26 -13 -15 -37 -95 -55
-110 -25 -153 -43 -164 -73 -16 -43 -23 -263 -10 -305 16 -49 48 -57 224 -57
l137 0 0 -59 c0 -92 36 -127 150 -146 60 -10 65 -13 71 -41 5 -22 7 -16 8 26
1 30 4 66 8 79 5 19 2 22 -13 19 -12 -2 -18 -10 -16 -22 3 -17 -1 -18 -50 -13
-81 10 -102 31 -106 106 l-3 61 30 0 c34 0 40 7 52 59 11 47 43 1083 34 1127
-4 22 -18 44 -40 61 -29 23 -35 35 -35 65 0 50 17 83 49 98 34 17 198 25 233
11 31 -12 33 35 -17 -471 -76 -755 -87 -927 -66 -983 13 -34 58 -47 167 -47
l93 0 -4 -242 -4 -243 10 234 c5 129 12 237 15 240 9 10 839 18 873 8 22 -6
55 -5 90 2 47 8 1157 18 1656 15 66 -1 454 -2 863 -2 l742 -1 1 -33 c1 -18 5
-112 9 -208 l8 -175 -2 208 -1 207 60 0 c98 0 178 17 198 41 33 41 23 226 -61
1109 -36 382 -37 363 13 372 52 10 173 -1 206 -18 31 -15 36 -26 45 -94 5 -41
4 -50 -9 -50 -8 0 -27 -14 -41 -31 -25 -29 -26 -35 -26 -162 0 -210 20 -853
30 -955 10 -102 18 -119 58 -124 25 -3 27 -7 30 -50 2 -26 -2 -57 -8 -69 -25
-45 -143 -68 -153 -29 -3 11 -12 20 -21 20 -12 0 -16 -10 -15 -42 1 -61 16
-160 18 -123 3 67 8 72 72 78 106 9 159 63 159 158 l0 47 161 3 161 4 24 28
c22 26 24 36 23 130 -1 144 -11 206 -38 228 -12 10 -65 28 -119 40 -169 38
-172 53 -16 86 148 31 154 37 154 181 0 59 -3 179 -7 266 -6 157 -7 159 -35
192 -55 62 -169 112 -283 123 l-59 6 -12 58 c-15 75 -31 105 -67 123 -38 20
-269 47 -278 33 -3 -6 -9 18 -13 53 -4 34 -14 98 -23 141 -14 66 -21 82 -47
102 -83 63 -411 109 -896 125 -302 10 -1598 10 -2165 -1z"/>
<path d="M5590 4165 c-3 -55 -3 -165 0 -245 l6 -145 2 147 c2 126 4 147 17
142 13 -5 15 -36 15 -190 0 -107 -4 -184 -9 -184 -5 0 -12 12 -14 28 l-4 27
-2 -26 c-1 -23 -9 -30 -52 -45 -64 -23 -124 -75 -182 -157 -44 -63 -127 -198
-127 -209 0 -3 130 -7 288 -10 293 -5 332 -10 332 -45 0 -13 3 -13 15 -3 9 7
13 15 10 18 -3 3 18 30 46 59 l52 52 -29 12 c-20 9 -115 13 -321 13 -161 1
-293 5 -293 9 0 12 87 146 114 176 36 41 108 81 144 81 l34 0 -4 -90 c-3 -98
2 -107 43 -64 20 22 24 38 28 106 l3 81 87 -6 c47 -3 107 -12 134 -20 26 -8
47 -11 47 -6 0 18 -56 31 -165 37 l-110 7 -5 207 c-5 192 -6 208 -25 222 -29
22 -40 14 -38 -28 2 -26 -2 -36 -12 -36 -11 0 -15 20 -17 93 l-3 92 -5 -100z"/>
<path d="M1312 4123 c-1 -35 -6 -63 -11 -63 -17 0 -22 19 -10 41 8 17 8 24 -3
36 -12 12 -18 11 -41 -7 l-27 -21 -2 -202 -3 -202 -60 -2 c-118 -5 -222 -29
-203 -48 2 -2 26 2 52 10 27 8 83 18 126 21 l78 7 3 -81 c3 -68 8 -84 27 -105
13 -14 32 -27 42 -30 16 -4 17 -1 9 27 -5 17 -9 59 -9 93 l0 63 33 0 c39 0
111 -43 149 -88 34 -40 101 -149 104 -168 2 -10 -3 -11 -14 -5 -18 9 -527 -4
-574 -15 -37 -8 -35 -26 5 -61 18 -16 31 -35 29 -43 -3 -9 1 -11 11 -7 9 3 19
2 22 -3 6 -9 -7 -14 -30 -11 -5 1 -1 -5 9 -14 17 -13 21 -12 38 8 25 28 101
35 391 36 119 1 217 4 217 7 0 13 -65 121 -117 196 -66 95 -107 136 -153 156
-19 8 -46 19 -60 25 -14 5 -33 9 -42 8 -16 -2 -18 7 -18 71 0 124 13 298 22
298 4 0 9 -75 10 -167 l2 -168 6 175 c3 96 2 202 -1 235 l-6 60 -1 -62z"/>
<path d="M2255 3934 c-157 -5 -487 -24 -522 -30 -40 -8 -42 -21 -5 -36 15 -7
28 -13 29 -13 2 -1 -2 -15 -9 -31 -10 -29 0 -53 180 -417 210 -425 230 -454
338 -504 29 -13 54 -31 54 -38 0 -19 119 -23 740 -19 289 1 749 3 1023 3 468
1 497 2 497 19 0 12 16 23 52 36 34 12 69 35 103 70 46 46 75 98 245 436 120
242 190 392 187 405 -2 11 -7 27 -11 35 -5 12 3 19 30 29 53 19 32 30 -82 43
-90 9 -2569 20 -2849 12z"/>
<path d="M1690 3100 c-8 -5 -125 -10 -260 -10 -271 -1 -333 -7 -355 -36 -8
-10 -15 -21 -15 -24 0 -3 149 -4 331 -2 283 3 334 1 354 -12 13 -8 60 -87 110
-183 48 -92 99 -186 112 -208 30 -47 89 -112 118 -127 11 -6 -1 9 -26 33 -34
34 -67 87 -129 210 -149 294 -206 380 -240 359z"/>
<path d="M5170 3085 c-27 -29 -96 -151 -191 -338 -44 -86 -93 -174 -110 -195
-17 -20 -9 -14 17 14 36 37 76 104 148 243 57 110 110 201 125 212 25 20 36
20 358 17 183 -2 333 0 333 3 0 4 -8 17 -19 30 -18 22 -23 23 -242 26 -123 2
-263 5 -312 6 -78 3 -89 1 -107 -18z"/>
<path d="M1102 2911 c-23 -4 -47 -12 -53 -18 -20 -20 -28 -87 -30 -250 -3
-202 -2 -203 107 -203 l73 0 -5 33 c-8 45 12 357 25 389 9 25 14 26 98 32 243
18 252 23 38 23 -115 0 -229 -3 -253 -6z"/>
<path d="M5507 2910 c182 -11 189 -13 197 -58 7 -41 16 -189 19 -322 l2 -85
68 0 c60 0 71 3 88 24 22 26 22 53 10 275 -11 189 10 176 -280 174 -208 -1
-216 -2 -104 -8z"/>
<path d="M4915 2766 c-73 -77 -115 -93 -276 -106 -163 -14 -2322 -13 -2429 1
-112 14 -164 38 -228 107 l-53 57 61 -110 c72 -127 120 -182 200 -224 58 -31
162 -61 214 -61 16 0 35 -8 42 -17 13 -17 13 -17 14 0 0 15 14 17 159 17 l158
0 9 63 9 62 3 -62 3 -63 819 0 c645 0 820 -3 824 -12 5 -10 7 -10 12 0 3 6 20
12 38 12 41 0 167 35 220 62 72 36 120 83 167 164 73 126 100 174 97 174 -2
-1 -30 -29 -63 -64z"/>
<path d="M2442 2288 l-2 -108 -177 -3 -178 -3 190 -2 c213 -2 2142 -2 2165 0
8 1 102 0 208 0 191 -2 193 -2 217 -27 14 -13 25 -20 25 -15 0 5 -12 18 -26
29 -25 20 -40 21 -215 21 l-189 0 -1 103 c-2 98 -2 100 -10 42 -5 -33 -6 -73
-4 -90 3 -16 1 -36 -3 -43 -7 -10 -213 -12 -998 -10 l-989 3 -6 105 -5 105 -2
-107z"/>
<path d="M1135 2244 c-121 -10 -125 -18 -125 -254 0 -178 8 -219 45 -234 9 -3
178 -6 376 -6 350 0 360 1 380 21 17 17 19 28 14 62 -13 81 -78 259 -117 318
-56 88 -69 91 -318 94 -113 2 -227 1 -255 -1z m509 -73 c19 -18 48 -61 64 -95
41 -82 84 -229 80 -269 l-3 -32 -363 -3 -363 -2 -16 37 c-13 31 -15 66 -10
191 4 141 6 155 27 177 12 13 34 26 49 28 14 2 133 3 263 3 l237 -1 35 -34z"/>
<path d="M1081 2171 c-16 -16 -20 -41 -26 -155 -8 -152 -3 -201 25 -216 22
-12 666 -14 673 -2 3 4 -81 6 -186 5 -106 -1 -178 2 -161 6 42 11 54 19 65 48
l9 25 40 -36 c29 -26 49 -36 74 -36 41 0 95 35 116 75 8 17 19 33 24 37 12 8
-27 129 -60 186 -47 80 -55 82 -331 82 -225 0 -244 -1 -262 -19z m79 -57 l0
-31 256 1 257 1 8 -24 c8 -20 7 -22 -8 -16 -10 4 -37 9 -59 12 -34 4 -46 1
-65 -18 -13 -13 -27 -24 -31 -24 -3 0 -10 -3 -14 -7 -11 -12 -24 -10 -24 4 0
6 -7 20 -17 30 -14 16 -33 18 -152 18 -158 0 -199 -9 -223 -47 l-17 -28 -1 48
c0 49 1 50 65 50 6 0 9 20 7 46 -2 34 0 42 7 31 6 -8 11 -29 11 -46z"/>
<path d="M5287 2236 c-21 -8 -47 -22 -58 -32 -52 -47 -154 -322 -147 -395 5
-58 12 -59 416 -57 l364 3 19 24 c17 21 19 41 19 212 0 207 -5 232 -53 249
-47 16 -513 13 -560 -4z m560 -50 l28 -24 3 -169 c3 -160 3 -170 -18 -196
l-21 -27 -354 0 c-305 0 -354 2 -365 15 -11 13 -9 31 9 102 41 162 108 290
165 313 12 5 134 9 273 9 l252 1 28 -24z"/>
<path d="M5282 2175 c-28 -20 -68 -88 -91 -157 -23 -67 -35 -118 -23 -100 7
10 12 5 22 -18 26 -64 111 -106 161 -80 13 7 36 26 51 44 25 28 27 29 28 10 0
-30 32 -55 82 -62 27 -4 -30 -9 -152 -13 -153 -4 -124 -5 138 -5 322 1 334 2
349 21 12 17 14 46 10 176 -3 87 -10 166 -16 178 -11 21 -17 21 -274 21 -221
0 -266 -2 -285 -15z m560 -127 c3 -24 3 -45 2 -47 -2 -2 -14 10 -28 25 l-24
29 -171 3 -170 3 -19 -30 c-15 -25 -21 -28 -32 -18 -8 7 -7 1 3 -15 9 -15 17
-33 17 -40 0 -7 -9 5 -21 27 -41 78 -74 94 -141 70 -38 -13 -43 -10 -32 19 5
14 42 16 309 16 l303 0 4 -42z"/>
<path d="M2143 2090 c-33 -14 -36 -42 -12 -125 16 -55 30 -83 51 -101 29 -24
31 -24 243 -24 169 0 215 3 224 14 8 9 11 52 9 127 l-3 114 -245 2 c-135 1
-255 -2 -267 -7z"/>
<path d="M4247 2093 c-4 -3 -7 -57 -7 -118 0 -86 3 -115 14 -124 11 -9 74 -12
230 -9 253 4 249 2 285 121 26 90 26 102 -1 121 -19 13 -62 16 -269 16 -135 0
-249 -3 -252 -7z"/>
<path d="M2120 1750 c12 -30 43 -95 69 -145 39 -76 53 -94 91 -115 l45 -25
1125 0 1125 0 45 25 c48 27 81 79 148 228 38 85 38 88 12 62 -19 -19 -33 -20
-325 -20 l-305 0 -1 23 0 22 -9 -22 -9 -23 -681 0 -681 0 -9 23 -9 22 0 -22
-1 -23 -305 0 c-303 0 -304 0 -325 23 l-21 22 21 -55z"/>
<path d="M5330 1659 c-25 -3 -35 -7 -23 -7 20 -2 22 -6 16 -50 -4 -35 -1 -58
11 -80 16 -31 36 -43 36 -21 0 6 7 9 15 5 9 -3 106 -6 217 -6 182 -1 204 0
215 16 19 26 16 98 -4 123 -17 20 -29 21 -228 23 -115 2 -230 0 -255 -3z"/>
<path d="M1106 1644 c-35 -34 -32 -125 4 -144 13 -7 101 -10 233 -9 l213 1 2
65 c2 41 -2 71 -10 82 -12 14 -11 15 6 1 15 -12 17 -24 14 -72 -2 -31 -1 -55
3 -53 13 9 19 70 10 102 l-9 32 46 4 c26 2 -75 4 -225 5 -235 2 -274 0 -287
-14z"/>
<path d="M2520 1260 c-60 -4 -106 -12 -126 -22 -57 -31 -158 -163 -152 -201 3
-21 9 -22 103 -28 109 -6 2046 -7 2212 -1 118 4 127 11 89 77 -41 70 -113 142
-159 160 -37 14 -145 16 -957 18 -503 1 -958 0 -1010 -3z"/>
<path d="M1038 1253 c-31 -8 -20 -23 16 -23 40 0 56 -15 26 -25 -11 -3 -20
-10 -20 -14 0 -12 46 -52 53 -45 6 6 8 -1 24 -86 l8 -45 380 -1 c209 0 351 2
315 5 l-65 6 60 34 c88 51 119 76 164 136 l41 54 83 4 c45 1 -177 3 -493 4
-316 0 -583 -1 -592 -4z"/>
<path d="M4784 1253 c72 -4 81 -6 100 -31 55 -72 113 -123 172 -154 35 -18 64
-36 64 -40 0 -4 -28 -9 -62 -11 -35 -2 108 -4 317 -5 209 -1 385 2 391 6 6 4
15 27 19 52 5 29 19 59 41 84 33 39 36 56 8 56 -8 0 -14 5 -14 10 0 6 19 10
43 10 39 1 41 2 23 15 -17 13 -103 15 -600 13 -320 -1 -545 -4 -502 -5z"/>
<path d="M1870 935 l-105 -35 -228 0 -227 0 5 -37 c3 -21 10 -74 15 -118 14
-105 46 -213 70 -227 17 -11 17 -12 -6 -30 -13 -11 -59 -25 -110 -33 -94 -15
-107 -20 -78 -32 24 -10 4520 -10 4530 0 12 11 1 16 -62 28 -75 13 -97 19 -90
26 3 4 -2 12 -12 19 -11 9 -12 13 -4 14 23 0 52 89 67 206 8 63 15 131 15 150
l0 34 -257 0 -256 0 -108 35 -109 35 -358 0 c-198 0 -394 -3 -437 -7 l-78 -6
6 -79 6 -78 -458 0 -459 0 5 78 6 79 -294 6 c-162 4 -427 7 -589 6 l-295 0
-105 -34z"/>
</g>
</svg>
